<mxfile host="app.diagrams.net">
  <diagram id="AWSConfluentDemo" name="AWS Confluent Demo">
    <mxGraphModel dx="1000" dy="1000" grid="1" gridSize="10" guides="1" tooltips="1" connect="1" arrows="1" fold="1" page="1" pageScale="1" pageWidth="850" pageHeight="1100" math="0" shadow="0">
      <root>
        <mxCell id="0" />
        <mxCell id="1" parent="0" />
        <!-- basic_producer.py -->
        <mxCell id="15" value="basic_producer.py" style="shape=rectangle;fillColor=#E3FCEF;strokeColor=#007A3D;fontSize=12;" vertex="1" parent="1">
          <mxGeometry x="60" y="40" width="120" height="40" as="geometry" />
        </mxCell>
        <!-- Python Producer -->
        <mxCell id="2" value="Python Producer" style="shape=ellipse;fillColor=#F7F7F7;strokeColor=#000000;fontSize=14;fontStyle=1;" vertex="1" parent="1">
          <mxGeometry x="60" y="120" width="120" height="60" as="geometry" />
        </mxCell>
        <mxCell id="16" style="edgeStyle=elbowEdgeStyle;endArrow=block;endFill=1;strokeColor=#007A3D;dashed=1;" edge="1" parent="1" source="15" target="2">
          <mxGeometry relative="1" as="geometry" />
        </mxCell>
        <!-- Confluent Cloud (Kafka) -->
        <mxCell id="3" value="Confluent Cloud\nKafka Topic" style="shape=cloud;fillColor=#F2F2FF;strokeColor=#0052CC;fontSize=14;fontStyle=1;" vertex="1" parent="1">
          <mxGeometry x="240" y="120" width="140" height="80" as="geometry" />
        </mxCell>
        <!-- Python Consumer -->
        <mxCell id="4" value="Python Consumer" style="shape=ellipse;fillColor=#F7F7F7;strokeColor=#000000;fontSize=14;fontStyle=1;" vertex="1" parent="1">
          <mxGeometry x="440" y="120" width="120" height="60" as="geometry" />
        </mxCell>
        <!-- basic_consumer.py -->
        <mxCell id="17" value="basic_consumer.py" style="shape=rectangle;fillColor=#E3FCEF;strokeColor=#007A3D;fontSize=12;" vertex="1" parent="1">
          <mxGeometry x="440" y="40" width="120" height="40" as="geometry" />
        </mxCell>
        <mxCell id="18" style="edgeStyle=elbowEdgeStyle;endArrow=block;endFill=1;strokeColor=#007A3D;dashed=1;" edge="1" parent="1" source="17" target="4">
          <mxGeometry relative="1" as="geometry" />
        </mxCell>
        <!-- AWS S3 -->
        <mxCell id="5" value="AWS S3\nBucket" style="shape=cube;fillColor=#F0F8FF;strokeColor=#FF9900;fontSize=14;fontStyle=1;" vertex="1" parent="1">
          <mxGeometry x="640" y="80" width="120" height="60" as="geometry" />
        </mxCell>
        <!-- AWS CloudWatch -->
        <mxCell id="6" value="AWS CloudWatch\nLog Group" style="shape=hexagon;fillColor=#F0F8FF;strokeColor=#2E73B8;fontSize=14;fontStyle=1;" vertex="1" parent="1">
          <mxGeometry x="640" y="180" width="120" height="60" as="geometry" />
        </mxCell>
        <!-- Arrows -->
        <mxCell id="7" style="edgeStyle=elbowEdgeStyle;endArrow=block;endFill=1;strokeColor=#000000;" edge="1" parent="1" source="2" target="3">
          <mxGeometry relative="1" as="geometry" />
        </mxCell>
        <mxCell id="8" style="edgeStyle=elbowEdgeStyle;endArrow=block;endFill=1;strokeColor=#000000;" edge="1" parent="1" source="3" target="4">
          <mxGeometry relative="1" as="geometry" />
        </mxCell>
        <mxCell id="9" style="edgeStyle=elbowEdgeStyle;endArrow=block;endFill=1;strokeColor=#000000;" edge="1" parent="1" source="4" target="5">
          <mxGeometry relative="1" as="geometry" />
        </mxCell>
        <mxCell id="10" style="edgeStyle=elbowEdgeStyle;endArrow=block;endFill=1;strokeColor=#000000;" edge="1" parent="1" source="4" target="6">
          <mxGeometry relative="1" as="geometry" />
        </mxCell>
        <!-- Labels for flow -->
        <mxCell id="11" value="Produce Event" style="text;html=1;strokeColor=none;fillColor=none;fontSize=12;" vertex="1" parent="1">
          <mxGeometry x="140" y="100" width="80" height="20" as="geometry" />
        </mxCell>
        <mxCell id="12" value="Consume Event" style="text;html=1;strokeColor=none;fillColor=none;fontSize=12;" vertex="1" parent="1">
          <mxGeometry x="340" y="100" width="80" height="20" as="geometry" />
        </mxCell>
        <mxCell id="13" value="Store Data" style="text;html=1;strokeColor=none;fillColor=none;fontSize=12;" vertex="1" parent="1">
          <mxGeometry x="560" y="60" width="80" height="20" as="geometry" />
        </mxCell>
        <mxCell id="14" value="Send Logs" style="text;html=1;strokeColor=none;fillColor=none;fontSize=12;" vertex="1" parent="1">
          <mxGeometry x="560" y="200" width="80" height="20" as="geometry" />
        </mxCell>
      </root>
    </mxGraphModel>
  </diagram>
</mxfile>
